<?xml version="1.0" encoding="UTF-8" standalone="no"?>
<!DOCTYPE svg PUBLIC "-//W3C//DTD SVG 1.1//EN"
 "http://www.w3.org/Graphics/SVG/1.1/DTD/svg11.dtd">
<!-- Generated by graphviz version 3.0.0 (20220226.1711)
 -->
<!-- Title: mygraph Pages: 1 -->
<svg width="608pt" height="190pt"
 viewBox="0.00 0.00 608.00 190.00" xmlns="http://www.w3.org/2000/svg" xmlns:xlink="http://www.w3.org/1999/xlink">
<g id="graph0" class="graph" transform="scale(1 1) rotate(0) translate(4 186)">
<title>mygraph</title>
<polygon fill="white" stroke="transparent" points="-4,4 -4,-186 604,-186 604,4 -4,4"/>
<!-- //examples/example3:example3 -->
<g id="node1" class="node">
<title>//examples/example3:example3</title>
<polygon fill="none" stroke="black" points="384,-182 194,-182 194,-146 384,-146 384,-182"/>
<text text-anchor="middle" x="289" y="-160.3" font-family="Times,serif" font-size="14.00">//examples/example3:example3</text>
</g>
<!-- //examples/example3:main.cc -->
<g id="node2" class="node">
<title>//examples/example3:main.cc</title>
<polygon fill="none" stroke="black" points="180,-110 0,-110 0,-74 180,-74 180,-110"/>
<text text-anchor="middle" x="90" y="-88.3" font-family="Times,serif" font-size="14.00">//examples/example3:main.cc</text>
</g>
<!-- //examples/example3:example3&#45;&gt;//examples/example3:main.cc -->
<g id="edge1" class="edge">
<title>//examples/example3:example3&#45;&gt;//examples/example3:main.cc</title>
<path fill="none" stroke="black" d="M240.57,-145.97C212.77,-136.19 177.66,-123.84 148.35,-113.52"/>
<polygon fill="black" stroke="black" points="149.24,-110.13 138.64,-110.11 146.92,-116.73 149.24,-110.13"/>
</g>
<!-- //examples/example3/lib1:lib1 -->
<g id="node3" class="node">
<title>//examples/example3/lib1:lib1</title>
<polygon fill="none" stroke="black" points="380,-110 198,-110 198,-74 380,-74 380,-110"/>
<text text-anchor="middle" x="289" y="-88.3" font-family="Times,serif" font-size="14.00">//examples/example3/lib1:lib1</text>
</g>
<!-- //examples/example3:example3&#45;&gt;//examples/example3/lib1:lib1 -->
<g id="edge2" class="edge">
<title>//examples/example3:example3&#45;&gt;//examples/example3/lib1:lib1</title>
<path fill="none" stroke="black" d="M289,-145.7C289,-137.98 289,-128.71 289,-120.11"/>
<polygon fill="black" stroke="black" points="292.5,-120.1 289,-110.1 285.5,-120.1 292.5,-120.1"/>
</g>
<!-- //examples/example3/lib2:lib2 -->
<g id="node4" class="node">
<title>//examples/example3/lib2:lib2</title>
<polygon fill="none" stroke="black" points="584,-110 402,-110 402,-74 584,-74 584,-110"/>
<text text-anchor="middle" x="493" y="-88.3" font-family="Times,serif" font-size="14.00">//examples/example3/lib2:lib2</text>
</g>
<!-- //examples/example3:example3&#45;&gt;//examples/example3/lib2:lib2 -->
<g id="edge3" class="edge">
<title>//examples/example3:example3&#45;&gt;//examples/example3/lib2:lib2</title>
<path fill="none" stroke="black" d="M338.64,-145.97C367.27,-136.14 403.45,-123.73 433.58,-113.39"/>
<polygon fill="black" stroke="black" points="434.81,-116.67 443.13,-110.11 432.54,-110.05 434.81,-116.67"/>
</g>
<!-- //examples/example3/lib1:lib1.h\n//examples/example3/lib1:lib1.cc -->
<g id="node6" class="node">
<title>//examples/example3/lib1:lib1.h\n//examples/example3/lib1:lib1.cc</title>
<polygon fill="none" stroke="black" points="384,-38 186,-38 186,0 384,0 384,-38"/>
<text text-anchor="middle" x="285" y="-22.8" font-family="Times,serif" font-size="14.00">//examples/example3/lib1:lib1.h</text>
<text text-anchor="middle" x="285" y="-7.8" font-family="Times,serif" font-size="14.00">//examples/example3/lib1:lib1.cc</text>
</g>
<!-- //examples/example3/lib1:lib1&#45;&gt;//examples/example3/lib1:lib1.h\n//examples/example3/lib1:lib1.cc -->
<g id="edge5" class="edge">
<title>//examples/example3/lib1:lib1&#45;&gt;//examples/example3/lib1:lib1.h\n//examples/example3/lib1:lib1.cc</title>
<path fill="none" stroke="black" d="M288.03,-73.81C287.6,-66.11 287.07,-56.82 286.59,-48.15"/>
<polygon fill="black" stroke="black" points="290.07,-47.81 286.02,-38.02 283.08,-48.2 290.07,-47.81"/>
</g>
<!-- //examples/example3/lib2:lib2.h\n//examples/example3/lib2:lib2.cc -->
<g id="node5" class="node">
<title>//examples/example3/lib2:lib2.h\n//examples/example3/lib2:lib2.cc</title>
<polygon fill="none" stroke="black" points="600,-38 402,-38 402,0 600,0 600,-38"/>
<text text-anchor="middle" x="501" y="-22.8" font-family="Times,serif" font-size="14.00">//examples/example3/lib2:lib2.h</text>
<text text-anchor="middle" x="501" y="-7.8" font-family="Times,serif" font-size="14.00">//examples/example3/lib2:lib2.cc</text>
</g>
<!-- //examples/example3/lib2:lib2&#45;&gt;//examples/example3/lib2:lib2.h\n//examples/example3/lib2:lib2.cc -->
<g id="edge4" class="edge">
<title>//examples/example3/lib2:lib2&#45;&gt;//examples/example3/lib2:lib2.h\n//examples/example3/lib2:lib2.cc</title>
<path fill="none" stroke="black" d="M494.94,-73.81C495.8,-66.11 496.85,-56.82 497.83,-48.15"/>
<polygon fill="black" stroke="black" points="501.33,-48.35 498.97,-38.02 494.37,-47.56 501.33,-48.35"/>
</g>
</g>
</svg>
